# xmcd
#
# Track frame offsets: 
#        183
#        18123
#        36705
#        50865
#        64545
#        83598
#        98288
#        106025
#        128020
#        146005
#        168673
#        184830
#        202990
#        231270
#        244223
#        255875
#
# Disc length: 3576 seconds
#
# Revision: 5
# Processed by: cddbd v1.5.2PL0 Copyright (c) Steve Scherf et al.
# Submitted via: ExactAudioCopyFreeDBPlugin 1.0
#
DISCID=ce0df610
DTITLE=Various Artist - Blues Collection Vol3
DYEAR=1991
DGENRE=Blues
TTITLE0=Big Joe Turner - Roll'em Pete
TTITLE1=Memphis Slim - Gamblers blues
TTITLE2=Glenn Miller - St. Louis blues march
TTITLE3=Ella Fitzgerald - Basin Street blues
TTITLE4=Sonny Terry and Brownie Mc Ghee - John Henry
TTITLE5=Leadbelly - The burgeois blues
TTITLE6=Ray Charles - Blues is my middle name
TTITLE7=B.B.King - The thrill is gone
TTITLE8=Otis Rush and Little Walter - Otis blues
TTITLE9=Sonny Terry and Brownie Mc Ghee - Drinking in the blues
TTITLE10=Blind John Davis - Every day i have the blues
TTITLE11=Nina Simone - Blues for mama
TTITLE12=Memphis Slim - Berthamay
TTITLE13=Billie Holiday - Billie's blues
TTITLE14=Luther Johnson - Snake
TTITLE15=Elmore James - Pickin' the blues
EXTD=AAD YEAR: 1991
EXTT0=
EXTT1=
EXTT2=
EXTT3=
EXTT4=
EXTT5=
EXTT6=
EXTT7=
EXTT8=
EXTT9=
EXTT10=
EXTT11=
EXTT12=
EXTT13=
EXTT14=
EXTT15=
PLAYORDER=
